
<global>
ampeg_attack=0.001
ampeg_release=1.5
</global>

<group>
color=red
group_label=MainHits_RR1
seq_length=8
seq_position=1

<region>
hivel=103
key=D3
lovel=78
offset=369
sample=Bass_a2_HardMallets_Center_Hits_F_D4_RR1.opus
</region>

<region>
hivel=127
key=D3
lovel=104
offset=490
sample=Bass_a2_HardMallets_Center_Hits_FF_D4_RR1.opus
</region>

<region>
hivel=77
key=D3
lovel=52
offset=490
sample=Bass_a2_HardMallets_Center_Hits_MF_D4_RR1.opus
</region>

<region>
hivel=51
key=D3
lovel=26
offset=4935
sample=Bass_a2_HardMallets_Center_Hits_MP_D4_RR1.opus
</region>

<region>
hivel=25
key=D3
lovel=0
offset=5570
sample=Bass_a2_HardMallets_Center_Hits_P_D4_RR1.opus
</region>

<region>
hivel=103
key=E3
lovel=78
offset=521
sample=Bass_a2_HardMallets_Edge_Hits_F_D4_RR1.opus
</region>

<region>
hivel=127
key=E3
lovel=104
offset=1208
sample=Bass_a2_HardMallets_Edge_Hits_FF_D4_RR1.opus
</region>

<region>
hivel=77
key=E3
lovel=52
offset=371
sample=Bass_a2_HardMallets_Edge_Hits_MF_D4_RR1.opus
</region>

<region>
hivel=51
key=E3
lovel=26
offset=5084
sample=Bass_a2_HardMallets_Edge_Hits_MP_D4_RR1.opus
</region>

<region>
hivel=25
key=E3
lovel=0
offset=5968
sample=Bass_a2_HardMallets_Edge_Hits_P_D4_RR1.opus
</region>

<region>
hivel=103
key=D#3
lovel=78
offset=480
sample=Bass_a2_HardMallets_Halfway_Hits_F_D4_RR1.opus
</region>

<region>
hivel=127
key=D#3
lovel=104
offset=429
sample=Bass_a2_HardMallets_Halfway_Hits_FF_D4_RR1.opus
</region>

<region>
hivel=77
key=D#3
lovel=52
offset=434
sample=Bass_a2_HardMallets_Halfway_Hits_MF_D4_RR1.opus
</region>

<region>
hivel=51
key=D#3
lovel=26
offset=2490
sample=Bass_a2_HardMallets_Halfway_Hits_MP_D4_RR1.opus
</region>

<region>
hivel=25
key=D#3
lovel=0
offset=6064
sample=Bass_a2_HardMallets_Halfway_Hits_P_D4_RR1.opus
</region>
</group>

<group>
color=red
group_label=MainHits_RR2
seq_length=8
seq_position=2

<region>
hivel=103
key=D3
lovel=78
offset=388
sample=Bass_a2_HardMallets_Center_Hits_F_D4_RR2.opus
</region>

<region>
hivel=127
key=D3
lovel=104
offset=480
sample=Bass_a2_HardMallets_Center_Hits_FF_D4_RR2.opus
</region>

<region>
hivel=77
key=D3
lovel=52
offset=495
sample=Bass_a2_HardMallets_Center_Hits_MF_D4_RR2.opus
</region>

<region>
hivel=51
key=D3
lovel=26
offset=3418
sample=Bass_a2_HardMallets_Center_Hits_MP_D4_RR2.opus
</region>

<region>
hivel=25
key=D3
lovel=0
offset=6137
sample=Bass_a2_HardMallets_Center_Hits_P_D4_RR2.opus
</region>

<region>
hivel=103
key=E3
lovel=78
offset=495
sample=Bass_a2_HardMallets_Edge_Hits_F_D4_RR2.opus
</region>

<region>
hivel=127
key=E3
lovel=104
offset=1208
sample=Bass_a2_HardMallets_Edge_Hits_FF_D4_RR2.opus
</region>

<region>
hivel=77
key=E3
lovel=52
offset=333
sample=Bass_a2_HardMallets_Edge_Hits_MF_D4_RR2.opus
</region>

<region>
hivel=51
key=E3
lovel=26
offset=5996
sample=Bass_a2_HardMallets_Edge_Hits_MP_D4_RR2.opus
</region>

<region>
hivel=25
key=E3
lovel=0
offset=4214
sample=Bass_a2_HardMallets_Edge_Hits_P_D4_RR2.opus
</region>

<region>
hivel=103
key=D#3
lovel=78
offset=432
sample=Bass_a2_HardMallets_Halfway_Hits_F_D4_RR2.opus
</region>

<region>
hivel=127
key=D#3
lovel=104
offset=504
sample=Bass_a2_HardMallets_Halfway_Hits_FF_D4_RR2.opus
</region>

<region>
hivel=77
key=D#3
lovel=52
offset=375
sample=Bass_a2_HardMallets_Halfway_Hits_MF_D4_RR2.opus
</region>

<region>
hivel=51
key=D#3
lovel=26
offset=4084
sample=Bass_a2_HardMallets_Halfway_Hits_MP_D4_RR2.opus
</region>

<region>
hivel=25
key=D#3
lovel=0
offset=4921
sample=Bass_a2_HardMallets_Halfway_Hits_P_D4_RR2.opus
</region>
</group>

<group>
color=red
group_label=MainHits_RR3
seq_length=8
seq_position=3

<region>
hivel=103
key=D3
lovel=78
offset=491
sample=Bass_a2_HardMallets_Center_Hits_F_D4_RR3.opus
</region>

<region>
hivel=127
key=D3
lovel=104
offset=491
sample=Bass_a2_HardMallets_Center_Hits_FF_D4_RR3.opus
</region>

<region>
hivel=77
key=D3
lovel=52
offset=490
sample=Bass_a2_HardMallets_Center_Hits_MF_D4_RR3.opus
</region>

<region>
hivel=51
key=D3
lovel=26
offset=598
sample=Bass_a2_HardMallets_Center_Hits_MP_D4_RR3.opus
</region>

<region>
hivel=25
key=D3
lovel=0
offset=5093
sample=Bass_a2_HardMallets_Center_Hits_P_D4_RR3.opus
</region>

<region>
hivel=103
key=E3
lovel=78
offset=492
sample=Bass_a2_HardMallets_Edge_Hits_F_D4_RR3.opus
</region>

<region>
hivel=127
key=E3
lovel=104
offset=1240
sample=Bass_a2_HardMallets_Edge_Hits_FF_D4_RR3.opus
</region>

<region>
hivel=77
key=E3
lovel=52
offset=522
sample=Bass_a2_HardMallets_Edge_Hits_MF_D4_RR3.opus
</region>

<region>
hivel=51
key=E3
lovel=26
offset=4437
sample=Bass_a2_HardMallets_Edge_Hits_MP_D4_RR3.opus
</region>

<region>
hivel=25
key=E3
lovel=0
offset=5276
sample=Bass_a2_HardMallets_Edge_Hits_P_D4_RR3.opus
</region>

<region>
hivel=103
key=D#3
lovel=78
offset=439
sample=Bass_a2_HardMallets_Halfway_Hits_F_D4_RR3.opus
</region>

<region>
hivel=127
key=D#3
lovel=104
offset=430
sample=Bass_a2_HardMallets_Halfway_Hits_FF_D4_RR3.opus
</region>

<region>
hivel=77
key=D#3
lovel=52
offset=363
sample=Bass_a2_HardMallets_Halfway_Hits_MF_D4_RR3.opus
</region>

<region>
hivel=51
key=D#3
lovel=26
offset=446
sample=Bass_a2_HardMallets_Halfway_Hits_MP_D4_RR3.opus
</region>

<region>
hivel=25
key=D#3
lovel=0
offset=4814
sample=Bass_a2_HardMallets_Halfway_Hits_P_D4_RR3.opus
</region>
</group>

<group>
color=red
group_label=MainHits_RR4
seq_length=8
seq_position=4

<region>
hivel=103
key=D3
lovel=78
offset=492
sample=Bass_a2_HardMallets_Center_Hits_F_D4_RR4.opus
</region>

<region>
hivel=127
key=D3
lovel=104
offset=494
sample=Bass_a2_HardMallets_Center_Hits_FF_D4_RR4.opus
</region>

<region>
hivel=77
key=D3
lovel=52
offset=493
sample=Bass_a2_HardMallets_Center_Hits_MF_D4_RR4.opus
</region>

<region>
hivel=51
key=D3
lovel=26
offset=6338
sample=Bass_a2_HardMallets_Center_Hits_MP_D4_RR4.opus
</region>

<region>
hivel=25
key=D3
lovel=0
offset=5013
sample=Bass_a2_HardMallets_Center_Hits_P_D4_RR4.opus
</region>

<region>
hivel=103
key=E3
lovel=78
offset=544
sample=Bass_a2_HardMallets_Edge_Hits_F_D4_RR4.opus
</region>

<region>
hivel=127
key=E3
lovel=104
offset=1101
sample=Bass_a2_HardMallets_Edge_Hits_FF_D4_RR4.opus
</region>

<region>
hivel=77
key=E3
lovel=52
offset=757
sample=Bass_a2_HardMallets_Edge_Hits_MF_D4_RR4.opus
</region>

<region>
hivel=51
key=E3
lovel=26
offset=4510
sample=Bass_a2_HardMallets_Edge_Hits_MP_D4_RR4.opus
</region>

<region>
hivel=25
key=E3
lovel=0
offset=4353
sample=Bass_a2_HardMallets_Edge_Hits_P_D4_RR4.opus
</region>

<region>
hivel=103
key=D#3
lovel=78
offset=325
sample=Bass_a2_HardMallets_Halfway_Hits_F_D4_RR4.opus
</region>

<region>
hivel=127
key=D#3
lovel=104
offset=410
sample=Bass_a2_HardMallets_Halfway_Hits_FF_D4_RR4.opus
</region>

<region>
hivel=77
key=D#3
lovel=52
offset=339
sample=Bass_a2_HardMallets_Halfway_Hits_MF_D4_RR4.opus
</region>

<region>
hivel=51
key=D#3
lovel=26
offset=480
sample=Bass_a2_HardMallets_Halfway_Hits_MP_D4_RR4.opus
</region>

<region>
hivel=25
key=D#3
lovel=0
offset=4878
sample=Bass_a2_HardMallets_Halfway_Hits_P_D4_RR4.opus
</region>
</group>

<group>
color=red
group_label=MainHits_RR5
seq_length=8
seq_position=5

<region>
hivel=103
key=D3
lovel=78
offset=491
sample=Bass_a2_HardMallets_Center_Hits_F_D4_RR5.opus
</region>

<region>
hivel=127
key=D3
lovel=104
offset=493
sample=Bass_a2_HardMallets_Center_Hits_FF_D4_RR5.opus
</region>

<region>
hivel=77
key=D3
lovel=52
offset=490
sample=Bass_a2_HardMallets_Center_Hits_MF_D4_RR5.opus
</region>

<region>
hivel=51
key=D3
lovel=26
offset=4095
sample=Bass_a2_HardMallets_Center_Hits_MP_D4_RR5.opus
</region>

<region>
hivel=25
key=D3
lovel=0
offset=6013
sample=Bass_a2_HardMallets_Center_Hits_P_D4_RR5.opus
</region>

<region>
hivel=103
key=E3
lovel=78
offset=559
sample=Bass_a2_HardMallets_Edge_Hits_F_D4_RR5.opus
</region>

<region>
hivel=127
key=E3
lovel=104
offset=1223
sample=Bass_a2_HardMallets_Edge_Hits_FF_D4_RR5.opus
</region>

<region>
hivel=77
key=E3
lovel=52
offset=1965
sample=Bass_a2_HardMallets_Edge_Hits_MF_D4_RR5.opus
</region>

<region>
hivel=51
key=E3
lovel=26
offset=4758
sample=Bass_a2_HardMallets_Edge_Hits_MP_D4_RR5.opus
</region>

<region>
hivel=25
key=E3
lovel=0
offset=5166
sample=Bass_a2_HardMallets_Edge_Hits_P_D4_RR5.opus
</region>

<region>
hivel=103
key=D#3
lovel=78
offset=433
sample=Bass_a2_HardMallets_Halfway_Hits_F_D4_RR5.opus
</region>

<region>
hivel=127
key=D#3
lovel=104
offset=320
sample=Bass_a2_HardMallets_Halfway_Hits_FF_D4_RR5.opus
</region>

<region>
hivel=77
key=D#3
lovel=52
offset=506
sample=Bass_a2_HardMallets_Halfway_Hits_MF_D4_RR5.opus
</region>

<region>
hivel=51
key=D#3
lovel=26
offset=3697
sample=Bass_a2_HardMallets_Halfway_Hits_MP_D4_RR5.opus
</region>

<region>
hivel=25
key=D#3
lovel=0
offset=5043
sample=Bass_a2_HardMallets_Halfway_Hits_P_D4_RR5.opus
</region>
</group>

<group>
color=red
group_label=MainHits_RR6
seq_length=8
seq_position=6

<region>
hivel=103
key=D3
lovel=78
offset=495
sample=Bass_a2_HardMallets_Center_Hits_F_D4_RR6.opus
</region>

<region>
hivel=127
key=D3
lovel=104
offset=497
sample=Bass_a2_HardMallets_Center_Hits_FF_D4_RR6.opus
</region>

<region>
hivel=77
key=D3
lovel=52
offset=368
sample=Bass_a2_HardMallets_Center_Hits_MF_D4_RR6.opus
</region>

<region>
hivel=51
key=D3
lovel=26
offset=492
sample=Bass_a2_HardMallets_Center_Hits_MP_D4_RR6.opus
</region>

<region>
hivel=25
key=D3
lovel=0
offset=4767
sample=Bass_a2_HardMallets_Center_Hits_P_D4_RR6.opus
</region>

<region>
hivel=103
key=E3
lovel=78
offset=486
sample=Bass_a2_HardMallets_Edge_Hits_F_D4_RR6.opus
</region>

<region>
hivel=127
key=E3
lovel=104
offset=325
sample=Bass_a2_HardMallets_Edge_Hits_FF_D4_RR6.opus
</region>

<region>
hivel=77
key=E3
lovel=52
offset=638
sample=Bass_a2_HardMallets_Edge_Hits_MF_D4_RR6.opus
</region>

<region>
hivel=51
key=E3
lovel=26
offset=4082
sample=Bass_a2_HardMallets_Edge_Hits_MP_D4_RR6.opus
</region>

<region>
hivel=25
key=E3
lovel=0
offset=4042
sample=Bass_a2_HardMallets_Edge_Hits_P_D4_RR6.opus
</region>

<region>
hivel=103
key=D#3
lovel=78
offset=321
sample=Bass_a2_HardMallets_Halfway_Hits_F_D4_RR6.opus
</region>

<region>
hivel=127
key=D#3
lovel=104
offset=295
sample=Bass_a2_HardMallets_Halfway_Hits_FF_D4_RR6.opus
</region>

<region>
hivel=77
key=D#3
lovel=52
offset=453
sample=Bass_a2_HardMallets_Halfway_Hits_MF_D4_RR6.opus
</region>

<region>
hivel=51
key=D#3
lovel=26
offset=480
sample=Bass_a2_HardMallets_Halfway_Hits_MP_D4_RR6.opus
</region>

<region>
hivel=25
key=D#3
lovel=0
offset=4927
sample=Bass_a2_HardMallets_Halfway_Hits_P_D4_RR6.opus
</region>
</group>

<group>
color=red
group_label=MainHits_RR7
seq_length=8
seq_position=7

<region>
hivel=103
key=D3
lovel=78
offset=492
sample=Bass_a2_HardMallets_Center_Hits_F_D4_RR7.opus
</region>

<region>
hivel=127
key=D3
lovel=104
offset=367
sample=Bass_a2_HardMallets_Center_Hits_FF_D4_RR7.opus
</region>

<region>
hivel=77
key=D3
lovel=52
offset=491
sample=Bass_a2_HardMallets_Center_Hits_MF_D4_RR7.opus
</region>

<region>
hivel=51
key=D3
lovel=26
offset=365
sample=Bass_a2_HardMallets_Center_Hits_MP_D4_RR7.opus
</region>

<region>
hivel=25
key=D3
lovel=0
offset=5342
sample=Bass_a2_HardMallets_Center_Hits_P_D4_RR7.opus
</region>

<region>
hivel=103
key=E3
lovel=78
offset=1250
sample=Bass_a2_HardMallets_Edge_Hits_F_D4_RR7.opus
</region>

<region>
hivel=127
key=E3
lovel=104
offset=1226
sample=Bass_a2_HardMallets_Edge_Hits_FF_D4_RR7.opus
</region>

<region>
hivel=77
key=E3
lovel=52
offset=330
sample=Bass_a2_HardMallets_Edge_Hits_MF_D4_RR7.opus
</region>

<region>
hivel=51
key=E3
lovel=26
offset=4007
sample=Bass_a2_HardMallets_Edge_Hits_MP_D4_RR7.opus
</region>

<region>
hivel=25
key=E3
lovel=0
offset=3587
sample=Bass_a2_HardMallets_Edge_Hits_P_D4_RR7.opus
</region>

<region>
hivel=103
key=D#3
lovel=78
offset=435
sample=Bass_a2_HardMallets_Halfway_Hits_F_D4_RR7.opus
</region>

<region>
hivel=127
key=D#3
lovel=104
offset=425
sample=Bass_a2_HardMallets_Halfway_Hits_FF_D4_RR7.opus
</region>

<region>
hivel=77
key=D#3
lovel=52
offset=427
sample=Bass_a2_HardMallets_Halfway_Hits_MF_D4_RR7.opus
</region>

<region>
hivel=51
key=D#3
lovel=26
offset=3901
sample=Bass_a2_HardMallets_Halfway_Hits_MP_D4_RR7.opus
</region>

<region>
hivel=25
key=D#3
lovel=0
offset=5657
sample=Bass_a2_HardMallets_Halfway_Hits_P_D4_RR7.opus
</region>
</group>

<group>
color=red
group_label=MainHIts_RR8
seq_length=8
seq_position=8

<region>
hivel=103
key=D3
lovel=78
offset=482
sample=Bass_a2_HardMallets_Center_Hits_F_D4_RR8.opus
</region>

<region>
hivel=127
key=D3
lovel=104
offset=486
sample=Bass_a2_HardMallets_Center_Hits_FF_D4_RR8.opus
</region>

<region>
hivel=77
key=D3
lovel=52
offset=495
sample=Bass_a2_HardMallets_Center_Hits_MF_D4_RR8.opus
</region>

<region>
hivel=51
key=D3
lovel=26
offset=493
sample=Bass_a2_HardMallets_Center_Hits_MP_D4_RR8.opus
</region>

<region>
hivel=25
key=D3
lovel=0
offset=5925
sample=Bass_a2_HardMallets_Center_Hits_P_D4_RR8.opus
</region>

<region>
hivel=103
key=E3
lovel=78
offset=527
sample=Bass_a2_HardMallets_Edge_Hits_F_D4_RR8.opus
</region>

<region>
hivel=127
key=E3
lovel=104
offset=503
sample=Bass_a2_HardMallets_Edge_Hits_FF_D4_RR8.opus
</region>

<region>
hivel=77
key=E3
lovel=52
offset=486
sample=Bass_a2_HardMallets_Edge_Hits_MF_D4_RR8.opus
</region>

<region>
hivel=51
key=E3
lovel=26
offset=4636
sample=Bass_a2_HardMallets_Edge_Hits_MP_D4_RR8.opus
</region>

<region>
hivel=25
key=E3
lovel=0
offset=3789
sample=Bass_a2_HardMallets_Edge_Hits_P_D4_RR8.opus
</region>

<region>
hivel=103
key=D#3
lovel=78
offset=322
sample=Bass_a2_HardMallets_Halfway_Hits_F_D4_RR8.opus
</region>

<region>
hivel=127
key=D#3
lovel=104
offset=284
sample=Bass_a2_HardMallets_Halfway_Hits_FF_D4_RR8.opus
</region>

<region>
hivel=77
key=D#3
lovel=52
offset=435
sample=Bass_a2_HardMallets_Halfway_Hits_MF_D4_RR8.opus
</region>

<region>
hivel=51
key=D#3
lovel=26
offset=464
sample=Bass_a2_HardMallets_Halfway_Hits_MP_D4_RR8.opus
</region>

<region>
hivel=25
key=D#3
lovel=0
offset=4868
sample=Bass_a2_HardMallets_Halfway_Hits_P_D4_RR8.opus
</region>
</group>

<group>
color=green
group_label=AltHits_RR1
seq_length=4
seq_position=1

<region>
hivel=103
key=D4
lovel=78
offset=369
sample=Bass_a2_HardMallets_Center_Buzz_Stroke_F_D4_RR1.opus
</region>

<region>
hivel=127
key=D4
lovel=104
offset=367
sample=Bass_a2_HardMallets_Center_Buzz_Stroke_FF_D4_RR1.opus
</region>

<region>
hivel=77
key=D4
lovel=52
offset=332
sample=Bass_a2_HardMallets_Center_Buzz_Stroke_MF_D4_RR1.opus
</region>

<region>
hivel=51
key=D4
lovel=26
offset=382
sample=Bass_a2_HardMallets_Center_Buzz_Stroke_MP_D4_RR1.opus
</region>

<region>
hivel=25
key=D4
lovel=0
offset=7885
sample=Bass_a2_HardMallets_Center_Buzz_Stroke_P_D4_RR1.opus
</region>

<region>
hivel=103
key=G4
lovel=78
offset=364
sample=Bass_a2_HardMallets_Center_Dry_Buzz_Stroke_F_D4_RR1.opus
</region>

<region>
hivel=127
key=G4
lovel=104
offset=490
sample=Bass_a2_HardMallets_Center_Dry_Buzz_Stroke_FF_D4_RR1.opus
</region>

<region>
hivel=77
key=G4
lovel=52
offset=377
sample=Bass_a2_HardMallets_Center_Dry_Buzz_Stroke_MF_D4_RR1.opus
</region>

<region>
hivel=51
key=G4
lovel=26
offset=5396
sample=Bass_a2_HardMallets_Center_Dry_Buzz_Stroke_MP_D4_RR1.opus
</region>

<region>
hivel=25
key=G4
lovel=0
offset=5694
sample=Bass_a2_HardMallets_Center_Dry_Buzz_Stroke_P_D4_RR1.opus
</region>

<region>
hivel=103
key=D5
lovel=78
offset=383
sample=Bass_a2_HardMallets_Center_Rim Shot_F_D4_RR1.opus
</region>

<region>
hivel=127
key=D5
lovel=104
offset=373
sample=Bass_a2_HardMallets_Center_Rim Shot_FF_D4_RR1.opus
</region>

<region>
hivel=77
key=D5
lovel=52
offset=252
sample=Bass_a2_HardMallets_Center_Rim Shot_MF_D4_RR1.opus
</region>

<region>
hivel=51
key=D5
lovel=26
offset=4556
sample=Bass_a2_HardMallets_Center_Rim Shot_MP_D4_RR1.opus
</region>

<region>
hivel=25
key=D5
lovel=0
offset=6602
sample=Bass_a2_HardMallets_Center_Rim Shot_P_D4_RR1.opus
</region>

<region>
hivel=103
key=D#5
lovel=78
offset=3921
sample=Bass_a2_HardMallets_Center_Rim_Hit_F_D4_RR1.opus
</region>

<region>
hivel=127
key=D#5
lovel=104
offset=2464
sample=Bass_a2_HardMallets_Center_Rim_Hit_FF_D4_RR1.opus
</region>

<region>
hivel=77
key=D#5
lovel=52
offset=4293
sample=Bass_a2_HardMallets_Center_Rim_Hit_MF_D4_RR1.opus
</region>

<region>
hivel=51
key=D#5
lovel=26
offset=4036
sample=Bass_a2_HardMallets_Center_Rim_Hit_MP_D4_RR1.opus
</region>

<region>
hivel=25
key=D#5
lovel=0
offset=5748
sample=Bass_a2_HardMallets_Center_Rim_Hit_P_D4_RR1.opus
</region>

<region>
hivel=103
key=D6
lovel=78
offset=5876
sample=Bass_a2_HardMallets_Center_Shell_F_D4_RR1.opus
</region>

<region>
hivel=127
key=D6
lovel=104
offset=6238
sample=Bass_a2_HardMallets_Center_Shell_FF_D4_RR1.opus
</region>

<region>
hivel=77
key=D6
lovel=52
offset=5849
sample=Bass_a2_HardMallets_Center_Shell_MF_D4_RR1.opus
</region>

<region>
hivel=51
key=D6
lovel=26
offset=5981
sample=Bass_a2_HardMallets_Center_Shell_MP_D4_RR1.opus
</region>

<region>
hivel=25
key=D6
lovel=0
offset=6030
sample=Bass_a2_HardMallets_Center_Shell_P_D4_RR1.opus
</region>

<region>
hivel=103
key=E4
lovel=78
offset=521
sample=Bass_a2_HardMallets_Edge_Buzz_Stroke_F_D4_RR1.opus
</region>

<region>
hivel=127
key=E4
lovel=104
offset=1584
sample=Bass_a2_HardMallets_Edge_Buzz_Stroke_FF_D4_RR1.opus
</region>

<region>
hivel=77
key=E4
lovel=52
offset=460
sample=Bass_a2_HardMallets_Edge_Buzz_Stroke_MF_D4_RR1.opus
</region>

<region>
hivel=51
key=E4
lovel=26
offset=5243
sample=Bass_a2_HardMallets_Edge_Buzz_Stroke_MP_D4_RR1.opus
</region>

<region>
hivel=25
key=E4
lovel=0
offset=5049
sample=Bass_a2_HardMallets_Edge_Buzz_Stroke_P_D4_RR1.opus
</region>

<region>
hivel=103
key=A4
lovel=78
offset=1709
sample=Bass_a2_HardMallets_Edge_Dry_Buzz_Stroke_F_D4_RR1.opus
</region>

<region>
hivel=127
key=A4
lovel=104
offset=1565
sample=Bass_a2_HardMallets_Edge_Dry_Buzz_Stroke_FF_D4_RR1.opus
</region>

<region>
hivel=77
key=A4
lovel=52
offset=462
sample=Bass_a2_HardMallets_Edge_Dry_Buzz_Stroke_MF_D4_RR1.opus
</region>

<region>
hivel=51
key=A4
lovel=26
offset=481
sample=Bass_a2_HardMallets_Edge_Dry_Buzz_Stroke_MP_D4_RR1.opus
</region>

<region>
hivel=25
key=A4
lovel=0
offset=3761
sample=Bass_a2_HardMallets_Edge_Dry_Buzz_Stroke_P_D4_RR1.opus
</region>

<region>
hivel=103
key=D#4
lovel=78
offset=480
sample=Bass_a2_HardMallets_Halfway_Buzz_Stroke_F_D4_RR1.opus
</region>

<region>
hivel=127
key=D#4
lovel=104
offset=433
sample=Bass_a2_HardMallets_Halfway_Buzz_Stroke_FF_D4_RR1.opus
</region>

<region>
hivel=77
key=D#4
lovel=52
offset=481
sample=Bass_a2_HardMallets_Halfway_Buzz_Stroke_MF_D4_RR1.opus
</region>

<region>
hivel=51
key=D#4
lovel=26
offset=480
sample=Bass_a2_HardMallets_Halfway_Buzz_Stroke_MP_D4_RR1.opus
</region>

<region>
hivel=25
key=D#4
lovel=0
offset=5740
sample=Bass_a2_HardMallets_Halfway_Buzz_Stroke_P_D4_RR1.opus
</region>

<region>
hivel=103
key=G#4
lovel=78
offset=481
sample=Bass_a2_HardMallets_Halfway_Dry_Buzz_Stroke_F_D4_RR1.opus
</region>

<region>
hivel=127
key=G#4
lovel=104
offset=481
sample=Bass_a2_HardMallets_Halfway_Dry_Buzz_Stroke_FF_D4_RR1.opus
</region>

<region>
hivel=77
key=G#4
lovel=52
offset=481
sample=Bass_a2_HardMallets_Halfway_Dry_Buzz_Stroke_MF_D4_RR1.opus
</region>

<region>
hivel=51
key=G#4
lovel=26
offset=1494
sample=Bass_a2_HardMallets_Halfway_Dry_Buzz_Stroke_MP_D4_RR1.opus
</region>

<region>
hivel=25
key=G#4
lovel=0
offset=3535
sample=Bass_a2_HardMallets_Halfway_Dry_Buzz_Stroke_P_D4_RR1.opus
</region>
</group>

<group>
color=green
group_label=AltHits_RR2
seq_length=4
seq_position=2

<region>
hivel=103
key=D4
lovel=78
offset=496
sample=Bass_a2_HardMallets_Center_Buzz_Stroke_F_D4_RR2.opus
</region>

<region>
hivel=127
key=D4
lovel=104
offset=494
sample=Bass_a2_HardMallets_Center_Buzz_Stroke_FF_D4_RR2.opus
</region>

<region>
hivel=77
key=D4
lovel=52
offset=482
sample=Bass_a2_HardMallets_Center_Buzz_Stroke_MF_D4_RR2.opus
</region>

<region>
hivel=51
key=D4
lovel=26
offset=6713
sample=Bass_a2_HardMallets_Center_Buzz_Stroke_MP_D4_RR2.opus
</region>

<region>
hivel=25
key=D4
lovel=0
offset=7853
sample=Bass_a2_HardMallets_Center_Buzz_Stroke_P_D4_RR2.opus
</region>

<region>
hivel=103
key=G4
lovel=78
offset=482
sample=Bass_a2_HardMallets_Center_Dry_Buzz_Stroke_F_D4_RR2.opus
</region>

<region>
hivel=127
key=G4
lovel=104
offset=497
sample=Bass_a2_HardMallets_Center_Dry_Buzz_Stroke_FF_D4_RR2.opus
</region>

<region>
hivel=77
key=G4
lovel=52
offset=494
sample=Bass_a2_HardMallets_Center_Dry_Buzz_Stroke_MF_D4_RR2.opus
</region>

<region>
hivel=51
key=G4
lovel=26
offset=482
sample=Bass_a2_HardMallets_Center_Dry_Buzz_Stroke_MP_D4_RR2.opus
</region>

<region>
hivel=25
key=G4
lovel=0
offset=5312
sample=Bass_a2_HardMallets_Center_Dry_Buzz_Stroke_P_D4_RR2.opus
</region>

<region>
hivel=103
key=D5
lovel=78
offset=382
sample=Bass_a2_HardMallets_Center_Rim Shot_F_D4_RR2.opus
</region>

<region>
hivel=127
key=D5
lovel=104
offset=241
sample=Bass_a2_HardMallets_Center_Rim Shot_FF_D4_RR2.opus
</region>

<region>
hivel=77
key=D5
lovel=52
offset=384
sample=Bass_a2_HardMallets_Center_Rim Shot_MF_D4_RR2.opus
</region>

<region>
hivel=51
key=D5
lovel=26
offset=4415
sample=Bass_a2_HardMallets_Center_Rim Shot_MP_D4_RR2.opus
</region>

<region>
hivel=25
key=D5
lovel=0
offset=5117
sample=Bass_a2_HardMallets_Center_Rim Shot_P_D4_RR2.opus
</region>

<region>
hivel=103
key=D#5
lovel=78
offset=4057
sample=Bass_a2_HardMallets_Center_Rim_Hit_F_D4_RR2.opus
</region>

<region>
hivel=127
key=D#5
lovel=104
offset=5911
sample=Bass_a2_HardMallets_Center_Rim_Hit_FF_D4_RR2.opus
</region>

<region>
hivel=77
key=D#5
lovel=52
offset=4884
sample=Bass_a2_HardMallets_Center_Rim_Hit_MF_D4_RR2.opus
</region>

<region>
hivel=51
key=D#5
lovel=26
offset=6877
sample=Bass_a2_HardMallets_Center_Rim_Hit_MP_D4_RR2.opus
</region>

<region>
hivel=25
key=D#5
lovel=0
offset=6487
sample=Bass_a2_HardMallets_Center_Rim_Hit_P_D4_RR2.opus
</region>

<region>
hivel=103
key=D6
lovel=78
offset=6630
sample=Bass_a2_HardMallets_Center_Shell_F_D4_RR2.opus
</region>

<region>
hivel=127
key=D6
lovel=104
offset=6865
sample=Bass_a2_HardMallets_Center_Shell_FF_D4_RR2.opus
</region>

<region>
hivel=77
key=D6
lovel=52
offset=6240
sample=Bass_a2_HardMallets_Center_Shell_MF_D4_RR2.opus
</region>

<region>
hivel=51
key=D6
lovel=26
offset=7798
sample=Bass_a2_HardMallets_Center_Shell_MP_D4_RR2.opus
</region>

<region>
hivel=25
key=D6
lovel=0
offset=7818
sample=Bass_a2_HardMallets_Center_Shell_P_D4_RR2.opus
</region>

<region>
hivel=103
key=E4
lovel=78
offset=573
sample=Bass_a2_HardMallets_Edge_Buzz_Stroke_F_D4_RR2.opus
</region>

<region>
hivel=127
key=E4
lovel=104
offset=778
sample=Bass_a2_HardMallets_Edge_Buzz_Stroke_FF_D4_RR2.opus
</region>

<region>
hivel=77
key=E4
lovel=52
offset=1196
sample=Bass_a2_HardMallets_Edge_Buzz_Stroke_MF_D4_RR2.opus
</region>

<region>
hivel=51
key=E4
lovel=26
offset=5857
sample=Bass_a2_HardMallets_Edge_Buzz_Stroke_MP_D4_RR2.opus
</region>

<region>
hivel=25
key=E4
lovel=0
offset=6258
sample=Bass_a2_HardMallets_Edge_Buzz_Stroke_P_D4_RR2.opus
</region>

<region>
hivel=103
key=A4
lovel=78
offset=322
sample=Bass_a2_HardMallets_Edge_Dry_Buzz_Stroke_F_D4_RR2.opus
</region>

<region>
hivel=127
key=A4
lovel=104
offset=480
sample=Bass_a2_HardMallets_Edge_Dry_Buzz_Stroke_FF_D4_RR2.opus
</region>

<region>
hivel=77
key=A4
lovel=52
offset=337
sample=Bass_a2_HardMallets_Edge_Dry_Buzz_Stroke_MF_D4_RR2.opus
</region>

<region>
hivel=51
key=A4
lovel=26
offset=480
sample=Bass_a2_HardMallets_Edge_Dry_Buzz_Stroke_MP_D4_RR2.opus
</region>

<region>
hivel=25
key=A4
lovel=0
offset=2947
sample=Bass_a2_HardMallets_Edge_Dry_Buzz_Stroke_P_D4_RR2.opus
</region>

<region>
hivel=103
key=D#4
lovel=78
offset=450
sample=Bass_a2_HardMallets_Halfway_Buzz_Stroke_F_D4_RR2.opus
</region>

<region>
hivel=127
key=D#4
lovel=104
offset=480
sample=Bass_a2_HardMallets_Halfway_Buzz_Stroke_FF_D4_RR2.opus
</region>

<region>
hivel=77
key=D#4
lovel=52
offset=480
sample=Bass_a2_HardMallets_Halfway_Buzz_Stroke_MF_D4_RR2.opus
</region>

<region>
hivel=51
key=D#4
lovel=26
offset=445
sample=Bass_a2_HardMallets_Halfway_Buzz_Stroke_MP_D4_RR2.opus
</region>

<region>
hivel=25
key=D#4
lovel=0
offset=6971
sample=Bass_a2_HardMallets_Halfway_Buzz_Stroke_P_D4_RR2.opus
</region>

<region>
hivel=103
key=G#4
lovel=78
offset=373
sample=Bass_a2_HardMallets_Halfway_Dry_Buzz_Stroke_F_D4_RR2.opus
</region>

<region>
hivel=127
key=G#4
lovel=104
offset=457
sample=Bass_a2_HardMallets_Halfway_Dry_Buzz_Stroke_FF_D4_RR2.opus
</region>

<region>
hivel=77
key=G#4
lovel=52
offset=411
sample=Bass_a2_HardMallets_Halfway_Dry_Buzz_Stroke_MF_D4_RR2.opus
</region>

<region>
hivel=51
key=G#4
lovel=26
offset=1910
sample=Bass_a2_HardMallets_Halfway_Dry_Buzz_Stroke_MP_D4_RR2.opus
</region>

<region>
hivel=25
key=G#4
lovel=0
offset=3036
sample=Bass_a2_HardMallets_Halfway_Dry_Buzz_Stroke_P_D4_RR2.opus
</region>
</group>

<group>
color=green
group_label=AltHits_RR3
seq_length=4
seq_position=3

<region>
hivel=103
key=D4
lovel=78
offset=489
sample=Bass_a2_HardMallets_Center_Buzz_Stroke_F_D4_RR3.opus
</region>

<region>
hivel=127
key=D4
lovel=104
offset=390
sample=Bass_a2_HardMallets_Center_Buzz_Stroke_FF_D4_RR3.opus
</region>

<region>
hivel=77
key=D4
lovel=52
offset=275
sample=Bass_a2_HardMallets_Center_Buzz_Stroke_MF_D4_RR3.opus
</region>

<region>
hivel=51
key=D4
lovel=26
offset=367
sample=Bass_a2_HardMallets_Center_Buzz_Stroke_MP_D4_RR3.opus
</region>

<region>
hivel=25
key=D4
lovel=0
offset=6169
sample=Bass_a2_HardMallets_Center_Buzz_Stroke_P_D4_RR3.opus
</region>

<region>
hivel=103
key=G4
lovel=78
offset=491
sample=Bass_a2_HardMallets_Center_Dry_Buzz_Stroke_F_D4_RR3.opus
</region>

<region>
hivel=127
key=G4
lovel=104
offset=491
sample=Bass_a2_HardMallets_Center_Dry_Buzz_Stroke_FF_D4_RR3.opus
</region>

<region>
hivel=77
key=G4
lovel=52
offset=432
sample=Bass_a2_HardMallets_Center_Dry_Buzz_Stroke_MF_D4_RR3.opus
</region>

<region>
hivel=51
key=G4
lovel=26
offset=3034
sample=Bass_a2_HardMallets_Center_Dry_Buzz_Stroke_MP_D4_RR3.opus
</region>

<region>
hivel=25
key=G4
lovel=0
offset=5478
sample=Bass_a2_HardMallets_Center_Dry_Buzz_Stroke_P_D4_RR3.opus
</region>

<region>
hivel=103
key=D5
lovel=78
offset=494
sample=Bass_a2_HardMallets_Center_Rim Shot_F_D4_RR3.opus
</region>

<region>
hivel=127
key=D5
lovel=104
offset=321
sample=Bass_a2_HardMallets_Center_Rim Shot_FF_D4_RR3.opus
</region>

<region>
hivel=77
key=D5
lovel=52
offset=412
sample=Bass_a2_HardMallets_Center_Rim Shot_MF_D4_RR3.opus
</region>

<region>
hivel=51
key=D5
lovel=26
offset=6377
sample=Bass_a2_HardMallets_Center_Rim Shot_MP_D4_RR3.opus
</region>

<region>
hivel=25
key=D5
lovel=0
offset=6122
sample=Bass_a2_HardMallets_Center_Rim Shot_P_D4_RR3.opus
</region>

<region>
hivel=103
key=D#5
lovel=78
offset=5523
sample=Bass_a2_HardMallets_Center_Rim_Hit_F_D4_RR3.opus
</region>

<region>
hivel=127
key=D#5
lovel=104
offset=4720
sample=Bass_a2_HardMallets_Center_Rim_Hit_FF_D4_RR3.opus
</region>

<region>
hivel=77
key=D#5
lovel=52
offset=5833
sample=Bass_a2_HardMallets_Center_Rim_Hit_MF_D4_RR3.opus
</region>

<region>
hivel=51
key=D#5
lovel=26
offset=6920
sample=Bass_a2_HardMallets_Center_Rim_Hit_MP_D4_RR3.opus
</region>

<region>
hivel=25
key=D#5
lovel=0
offset=6323
sample=Bass_a2_HardMallets_Center_Rim_Hit_P_D4_RR3.opus
</region>

<region>
hivel=103
key=D6
lovel=78
offset=5966
sample=Bass_a2_HardMallets_Center_Shell_F_D4_RR3.opus
</region>

<region>
hivel=127
key=D6
lovel=104
offset=5856
sample=Bass_a2_HardMallets_Center_Shell_FF_D4_RR3.opus
</region>

<region>
hivel=77
key=D6
lovel=52
offset=5847
sample=Bass_a2_HardMallets_Center_Shell_MF_D4_RR3.opus
</region>

<region>
hivel=51
key=D6
lovel=26
offset=6275
sample=Bass_a2_HardMallets_Center_Shell_MP_D4_RR3.opus
</region>

<region>
hivel=25
key=D6
lovel=0
offset=6578
sample=Bass_a2_HardMallets_Center_Shell_P_D4_RR3.opus
</region>

<region>
hivel=103
key=E4
lovel=78
offset=1655
sample=Bass_a2_HardMallets_Edge_Buzz_Stroke_F_D4_RR3.opus
</region>

<region>
hivel=127
key=E4
lovel=104
offset=793
sample=Bass_a2_HardMallets_Edge_Buzz_Stroke_FF_D4_RR3.opus
</region>

<region>
hivel=77
key=E4
lovel=52
offset=330
sample=Bass_a2_HardMallets_Edge_Buzz_Stroke_MF_D4_RR3.opus
</region>

<region>
hivel=51
key=E4
lovel=26
offset=5412
sample=Bass_a2_HardMallets_Edge_Buzz_Stroke_MP_D4_RR3.opus
</region>

<region>
hivel=25
key=E4
lovel=0
offset=5375
sample=Bass_a2_HardMallets_Edge_Buzz_Stroke_P_D4_RR3.opus
</region>

<region>
hivel=103
key=A4
lovel=78
offset=393
sample=Bass_a2_HardMallets_Edge_Dry_Buzz_Stroke_F_D4_RR3.opus
</region>

<region>
hivel=127
key=A4
lovel=104
offset=1232
sample=Bass_a2_HardMallets_Edge_Dry_Buzz_Stroke_FF_D4_RR3.opus
</region>

<region>
hivel=77
key=A4
lovel=52
offset=461
sample=Bass_a2_HardMallets_Edge_Dry_Buzz_Stroke_MF_D4_RR3.opus
</region>

<region>
hivel=51
key=A4
lovel=26
offset=4791
sample=Bass_a2_HardMallets_Edge_Dry_Buzz_Stroke_MP_D4_RR3.opus
</region>

<region>
hivel=25
key=A4
lovel=0
offset=4028
sample=Bass_a2_HardMallets_Edge_Dry_Buzz_Stroke_P_D4_RR3.opus
</region>

<region>
hivel=103
key=D#4
lovel=78
offset=480
sample=Bass_a2_HardMallets_Halfway_Buzz_Stroke_F_D4_RR3.opus
</region>

<region>
hivel=127
key=D#4
lovel=104
offset=383
sample=Bass_a2_HardMallets_Halfway_Buzz_Stroke_FF_D4_RR3.opus
</region>

<region>
hivel=77
key=D#4
lovel=52
offset=481
sample=Bass_a2_HardMallets_Halfway_Buzz_Stroke_MF_D4_RR3.opus
</region>

<region>
hivel=51
key=D#4
lovel=26
offset=481
sample=Bass_a2_HardMallets_Halfway_Buzz_Stroke_MP_D4_RR3.opus
</region>

<region>
hivel=25
key=D#4
lovel=0
offset=5072
sample=Bass_a2_HardMallets_Halfway_Buzz_Stroke_P_D4_RR3.opus
</region>

<region>
hivel=103
key=G#4
lovel=78
offset=447
sample=Bass_a2_HardMallets_Halfway_Dry_Buzz_Stroke_F_D4_RR3.opus
</region>

<region>
hivel=127
key=G#4
lovel=104
offset=481
sample=Bass_a2_HardMallets_Halfway_Dry_Buzz_Stroke_FF_D4_RR3.opus
</region>

<region>
hivel=77
key=G#4
lovel=52
offset=457
sample=Bass_a2_HardMallets_Halfway_Dry_Buzz_Stroke_MF_D4_RR3.opus
</region>

<region>
hivel=51
key=G#4
lovel=26
offset=481
sample=Bass_a2_HardMallets_Halfway_Dry_Buzz_Stroke_MP_D4_RR3.opus
</region>

<region>
hivel=25
key=G#4
lovel=0
offset=4374
sample=Bass_a2_HardMallets_Halfway_Dry_Buzz_Stroke_P_D4_RR3.opus
</region>
</group>

<group>
color=green
group_label=AltHits_RR4
seq_length=4
seq_position=4

<region>
hivel=103
key=D4
lovel=78
offset=495
sample=Bass_a2_HardMallets_Center_Buzz_Stroke_F_D4_RR4.opus
</region>

<region>
hivel=127
key=D4
lovel=104
offset=495
sample=Bass_a2_HardMallets_Center_Buzz_Stroke_FF_D4_RR4.opus
</region>

<region>
hivel=77
key=D4
lovel=52
offset=496
sample=Bass_a2_HardMallets_Center_Buzz_Stroke_MF_D4_RR4.opus
</region>

<region>
hivel=51
key=D4
lovel=26
offset=481
sample=Bass_a2_HardMallets_Center_Buzz_Stroke_MP_D4_RR4.opus
</region>

<region>
hivel=25
key=D4
lovel=0
offset=5978
sample=Bass_a2_HardMallets_Center_Buzz_Stroke_P_D4_RR4.opus
</region>

<region>
hivel=103
key=G4
lovel=78
offset=496
sample=Bass_a2_HardMallets_Center_Dry_Buzz_Stroke_F_D4_RR4.opus
</region>

<region>
hivel=127
key=G4
lovel=104
offset=497
sample=Bass_a2_HardMallets_Center_Dry_Buzz_Stroke_FF_D4_RR4.opus
</region>

<region>
hivel=77
key=G4
lovel=52
offset=482
sample=Bass_a2_HardMallets_Center_Dry_Buzz_Stroke_MF_D4_RR4.opus
</region>

<region>
hivel=51
key=G4
lovel=26
offset=4456
sample=Bass_a2_HardMallets_Center_Dry_Buzz_Stroke_MP_D4_RR4.opus
</region>

<region>
hivel=25
key=G4
lovel=0
offset=5319
sample=Bass_a2_HardMallets_Center_Dry_Buzz_Stroke_P_D4_RR4.opus
</region>

<region>
hivel=103
key=D5
lovel=78
offset=383
sample=Bass_a2_HardMallets_Center_Rim Shot_F_D4_RR4.opus
</region>

<region>
hivel=127
key=D5
lovel=104
offset=356
sample=Bass_a2_HardMallets_Center_Rim Shot_FF_D4_RR4.opus
</region>

<region>
hivel=77
key=D5
lovel=52
offset=492
sample=Bass_a2_HardMallets_Center_Rim Shot_MF_D4_RR4.opus
</region>

<region>
hivel=51
key=D5
lovel=26
offset=5045
sample=Bass_a2_HardMallets_Center_Rim Shot_MP_D4_RR4.opus
</region>

<region>
hivel=25
key=D5
lovel=0
offset=5202
sample=Bass_a2_HardMallets_Center_Rim Shot_P_D4_RR4.opus
</region>

<region>
hivel=103
key=D#5
lovel=78
offset=5764
sample=Bass_a2_HardMallets_Center_Rim_Hit_F_D4_RR4.opus
</region>

<region>
hivel=127
key=D#5
lovel=104
offset=5280
sample=Bass_a2_HardMallets_Center_Rim_Hit_FF_D4_RR4.opus
</region>

<region>
hivel=77
key=D#5
lovel=52
offset=6178
sample=Bass_a2_HardMallets_Center_Rim_Hit_MF_D4_RR4.opus
</region>

<region>
hivel=51
key=D#5
lovel=26
offset=5617
sample=Bass_a2_HardMallets_Center_Rim_Hit_MP_D4_RR4.opus
</region>

<region>
hivel=25
key=D#5
lovel=0
offset=5735
sample=Bass_a2_HardMallets_Center_Rim_Hit_P_D4_RR4.opus
</region>

<region>
hivel=103
key=D6
lovel=78
offset=6431
sample=Bass_a2_HardMallets_Center_Shell_F_D4_RR4.opus
</region>

<region>
hivel=127
key=D6
lovel=104
offset=7150
sample=Bass_a2_HardMallets_Center_Shell_FF_D4_RR4.opus
</region>

<region>
hivel=77
key=D6
lovel=52
offset=6237
sample=Bass_a2_HardMallets_Center_Shell_MF_D4_RR4.opus
</region>

<region>
hivel=51
key=D6
lovel=26
offset=6001
sample=Bass_a2_HardMallets_Center_Shell_MP_D4_RR4.opus
</region>

<region>
hivel=25
key=D6
lovel=0
offset=8566
sample=Bass_a2_HardMallets_Center_Shell_P_D4_RR4.opus
</region>

<region>
hivel=103
key=E4
lovel=78
offset=487
sample=Bass_a2_HardMallets_Edge_Buzz_Stroke_F_D4_RR4.opus
</region>

<region>
hivel=127
key=E4
lovel=104
offset=566
sample=Bass_a2_HardMallets_Edge_Buzz_Stroke_FF_D4_RR4.opus
</region>

<region>
hivel=77
key=E4
lovel=52
offset=461
sample=Bass_a2_HardMallets_Edge_Buzz_Stroke_MF_D4_RR4.opus
</region>

<region>
hivel=51
key=E4
lovel=26
offset=5285
sample=Bass_a2_HardMallets_Edge_Buzz_Stroke_MP_D4_RR4.opus
</region>

<region>
hivel=25
key=E4
lovel=0
offset=5167
sample=Bass_a2_HardMallets_Edge_Buzz_Stroke_P_D4_RR4.opus
</region>

<region>
hivel=103
key=A4
lovel=78
offset=481
sample=Bass_a2_HardMallets_Edge_Dry_Buzz_Stroke_F_D4_RR4.opus
</region>

<region>
hivel=127
key=A4
lovel=104
offset=384
sample=Bass_a2_HardMallets_Edge_Dry_Buzz_Stroke_FF_D4_RR4.opus
</region>

<region>
hivel=77
key=A4
lovel=52
offset=319
sample=Bass_a2_HardMallets_Edge_Dry_Buzz_Stroke_MF_D4_RR4.opus
</region>

<region>
hivel=51
key=A4
lovel=26
offset=3140
sample=Bass_a2_HardMallets_Edge_Dry_Buzz_Stroke_MP_D4_RR4.opus
</region>

<region>
hivel=25
key=A4
lovel=0
offset=2932
sample=Bass_a2_HardMallets_Edge_Dry_Buzz_Stroke_P_D4_RR4.opus
</region>

<region>
hivel=103
key=D#4
lovel=78
offset=325
sample=Bass_a2_HardMallets_Halfway_Buzz_Stroke_F_D4_RR4.opus
</region>

<region>
hivel=127
key=D#4
lovel=104
offset=480
sample=Bass_a2_HardMallets_Halfway_Buzz_Stroke_FF_D4_RR4.opus
</region>

<region>
hivel=77
key=D#4
lovel=52
offset=429
sample=Bass_a2_HardMallets_Halfway_Buzz_Stroke_MF_D4_RR4.opus
</region>

<region>
hivel=51
key=D#4
lovel=26
offset=459
sample=Bass_a2_HardMallets_Halfway_Buzz_Stroke_MP_D4_RR4.opus
</region>

<region>
hivel=25
key=D#4
lovel=0
offset=3986
sample=Bass_a2_HardMallets_Halfway_Buzz_Stroke_P_D4_RR4.opus
</region>

<region>
hivel=103
key=G#4
lovel=78
offset=394
sample=Bass_a2_HardMallets_Halfway_Dry_Buzz_Stroke_F_D4_RR4.opus
</region>

<region>
hivel=127
key=G#4
lovel=104
offset=428
sample=Bass_a2_HardMallets_Halfway_Dry_Buzz_Stroke_FF_D4_RR4.opus
</region>

<region>
hivel=77
key=G#4
lovel=52
offset=457
sample=Bass_a2_HardMallets_Halfway_Dry_Buzz_Stroke_MF_D4_RR4.opus
</region>

<region>
hivel=51
key=G#4
lovel=26
offset=345
sample=Bass_a2_HardMallets_Halfway_Dry_Buzz_Stroke_MP_D4_RR4.opus
</region>

<region>
hivel=25
key=G#4
lovel=0
offset=4597
sample=Bass_a2_HardMallets_Halfway_Dry_Buzz_Stroke_P_D4_RR4.opus
</region>
</group>

<group>
amp_veltrack=0
ampeg_attack=0.001
ampeg_release=0.05
group_label=Rolls_RR1_0-25
seq_length=2
seq_position=1
xfin_hicc1=25
xfout_hicc1=50
xfout_locc1=25

<region>
hivel=127
key=D2
loop_end=116397
loop_mode=loop_continuous
loop_start=28764
loop_xfade=21631
lovel=1
offset=3928
sample=Bass_a2_HardMallets_Center_Buzz_Roll_P_D4_RR1.opus
</region>

<region>
hivel=127
key=F2
loop_end=116397
loop_mode=loop_continuous
loop_start=26329
loop_xfade=21631
lovel=1
offset=6485
sample=Bass_a2_HardMallets_Center_Rim_Buzz_Roll_P_D4_RR1.opus
</region>

<region>
hivel=127
key=D#2
loop_end=116397
loop_mode=loop_continuous
loop_start=28926
loop_xfade=21631
lovel=1
offset=3835
sample=Bass_a2_HardMallets_Edge_Buzz_Roll_P_D4_RR1.opus
</region>

<region>
hivel=127
key=E2
loop_end=116397
loop_mode=loop_continuous
loop_start=29684
loop_xfade=21631
lovel=1
offset=4760
sample=Bass_a2_HardMallets_Halfway_Buzz_Roll_P_D4_RR1.opus
</region>
</group>

<group>
amp_veltrack=0
ampeg_attack=0.001
ampeg_release=0.05
group_label=Rolls_RR1_26-51
seq_length=2
seq_position=1
xfin_hicc1=51
xfin_locc1=26
xfout_hicc1=76
xfout_locc1=51

<region>
hivel=127
key=D2
loop_end=113102
loop_mode=loop_continuous
loop_start=21019
loop_xfade=21019
lovel=1
offset=482
sample=Bass_a2_HardMallets_Center_Buzz_Roll_MP_D4_RR1.opus
</region>

<region>
hivel=127
key=F2
loop_end=116397
loop_mode=loop_continuous
loop_start=27307
loop_xfade=21631
lovel=1
offset=6274
sample=Bass_a2_HardMallets_Center_Rim_Buzz_Roll_MP_D4_RR1.opus
</region>

<region>
hivel=127
key=D#2
loop_end=116397
loop_mode=loop_continuous
loop_start=29619
loop_xfade=21631
lovel=1
offset=481
sample=Bass_a2_HardMallets_Edge_Buzz_Roll_MP_D4_RR1.opus
</region>

<region>
hivel=127
key=E2
loop_end=112873
loop_mode=loop_continuous
loop_start=20976
loop_xfade=20976
lovel=1
offset=482
sample=Bass_a2_HardMallets_Halfway_Buzz_Roll_MP_D4_RR1.opus
</region>
</group>

<group>
amp_veltrack=0
ampeg_attack=0.001
ampeg_release=0.05
group_label=Rolls_RR1_52-77
seq_length=2
seq_position=1
xfin_hicc1=77
xfin_locc1=52
xfout_hicc1=102
xfout_locc1=77

<region>
hivel=127
key=D2
loop_end=113656
loop_mode=loop_continuous
loop_start=21122
loop_xfade=21122
lovel=1
offset=481
sample=Bass_a2_HardMallets_Center_Buzz_Roll_MF_D4_RR1.opus
</region>

<region>
hivel=127
key=F2
loop_end=116397
loop_mode=loop_continuous
loop_start=27804
loop_xfade=21631
lovel=1
offset=5953
sample=Bass_a2_HardMallets_Center_Rim_Buzz_Roll_MF_D4_RR1.opus
</region>

<region>
hivel=127
key=D#2
loop_end=114125
loop_mode=loop_continuous
loop_start=21209
loop_xfade=21209
lovel=1
offset=457
sample=Bass_a2_HardMallets_Edge_Buzz_Roll_MF_D4_RR1.opus
</region>

<region>
hivel=127
key=E2
loop_end=113283
loop_mode=loop_continuous
loop_start=21052
loop_xfade=21052
lovel=1
offset=481
sample=Bass_a2_HardMallets_Halfway_Buzz_Roll_MF_D4_RR1.opus
</region>
</group>

<group>
amp_veltrack=0
ampeg_attack=0.001
ampeg_release=0.05
group_label=Rolls_RR1_78-103
seq_length=2
seq_position=1
xfin_hicc1=103
xfin_locc1=78
xfout_hicc1=127
xfout_locc1=103

<region>
hivel=127
key=D2
loop_end=113106
loop_mode=loop_continuous
loop_start=21019
loop_xfade=21019
lovel=1
offset=444
sample=Bass_a2_HardMallets_Center_Buzz_Roll_F_D4_RR1.opus
</region>

<region>
hivel=127
key=F2
loop_end=113154
loop_mode=loop_continuous
loop_start=21028
loop_xfade=21028
lovel=1
offset=449
sample=Bass_a2_HardMallets_Center_Rim_Buzz_Roll_F_D4_RR1.opus
</region>

<region>
hivel=127
key=D#2
loop_end=114985
loop_mode=loop_continuous
loop_start=25068
loop_xfade=21369
lovel=1
offset=480
sample=Bass_a2_HardMallets_Edge_Buzz_Roll_F_D4_RR1.opus
</region>

<region>
hivel=127
key=E2
loop_end=113270
loop_mode=loop_continuous
loop_start=21050
loop_xfade=21050
lovel=1
offset=481
sample=Bass_a2_HardMallets_Halfway_Buzz_Roll_F_D4_RR1.opus
</region>
</group>

<group>
amp_veltrack=0
ampeg_attack=0.001
ampeg_release=0.05
group_label=Rolls_RR1_104-127
seq_length=2
seq_position=1
xfin_hicc1=127
xfin_locc1=104
xfout_hicc1=127
xfout_locc1=127

<region>
hivel=127
key=D2
loop_end=113296
loop_mode=loop_continuous
loop_start=21055
loop_xfade=21055
lovel=1
offset=460
sample=Bass_a2_HardMallets_Center_Buzz_Roll_FF_D4_RR1.opus
</region>

<region>
hivel=127
key=F2
loop_end=113421
loop_mode=loop_continuous
loop_start=21078
loop_xfade=21078
lovel=1
offset=428
sample=Bass_a2_HardMallets_Center_Rim_Buzz_Roll_FF_D4_RR1.opus
</region>

<region>
hivel=127
key=D#2
loop_end=113521
loop_mode=loop_continuous
loop_start=21097
loop_xfade=21097
lovel=1
offset=480
sample=Bass_a2_HardMallets_Edge_Buzz_Roll_FF_D4_RR1.opus
</region>

<region>
hivel=127
key=E2
loop_end=114570
loop_mode=loop_continuous
loop_start=21292
loop_xfade=21292
lovel=1
offset=481
sample=Bass_a2_HardMallets_Halfway_Buzz_Roll_FF_D4_RR1.opus
</region>
</group>

<group>
amp_veltrack=0
ampeg_attack=0.001
ampeg_release=0.05
group_label=Rolls_RR2_0-25
seq_length=2
seq_position=2
xfin_hicc1=25
xfout_hicc1=50
xfout_locc1=25

<region>
hivel=127
key=D2
loop_end=116397
loop_mode=loop_continuous
loop_start=27364
loop_xfade=21631
lovel=1
offset=1849
sample=Bass_a2_HardMallets_Center_Buzz_Roll_P_D4_RR2.opus
</region>

<region>
hivel=127
key=F2
loop_end=116397
loop_mode=loop_continuous
loop_start=26023
loop_xfade=21631
lovel=1
offset=6961
sample=Bass_a2_HardMallets_Center_Rim_Buzz_Roll_P_D4_RR2.opus
</region>

<region>
hivel=127
key=D#2
loop_end=116397
loop_mode=loop_continuous
loop_start=28435
loop_xfade=21631
lovel=1
offset=4581
sample=Bass_a2_HardMallets_Edge_Buzz_Roll_P_D4_RR2.opus
</region>

<region>
hivel=127
key=E2
loop_end=116397
loop_mode=loop_continuous
loop_start=28555
loop_xfade=21631
lovel=1
offset=481
sample=Bass_a2_HardMallets_Halfway_Buzz_Roll_P_D4_RR2.opus
</region>
</group>

<group>
amp_veltrack=0
ampeg_attack=0.001
ampeg_release=0.05
group_label=Rolls_RR2_26-51
seq_length=2
seq_position=2
xfin_hicc1=51
xfin_locc1=26
xfout_hicc1=76
xfout_locc1=51

<region>
hivel=127
key=D2
loop_end=112904
loop_mode=loop_continuous
loop_start=20982
loop_xfade=20982
lovel=1
offset=482
sample=Bass_a2_HardMallets_Center_Buzz_Roll_MP_D4_RR2.opus
</region>

<region>
hivel=127
key=F2
loop_end=116397
loop_mode=loop_continuous
loop_start=27664
loop_xfade=21631
lovel=1
offset=4467
sample=Bass_a2_HardMallets_Center_Rim_Buzz_Roll_MP_D4_RR2.opus
</region>

<region>
hivel=127
key=D#2
loop_end=113425
loop_mode=loop_continuous
loop_start=21079
loop_xfade=21079
lovel=1
offset=480
sample=Bass_a2_HardMallets_Edge_Buzz_Roll_MP_D4_RR2.opus
</region>

<region>
hivel=127
key=E2
loop_end=112540
loop_mode=loop_continuous
loop_start=20914
loop_xfade=20914
lovel=1
offset=482
sample=Bass_a2_HardMallets_Halfway_Buzz_Roll_MP_D4_RR2.opus
</region>
</group>

<group>
amp_veltrack=0
ampeg_attack=0.001
ampeg_release=0.05
group_label=Rolls_RR2_52-77
seq_length=2
seq_position=2
xfin_hicc1=77
xfin_locc1=52
xfout_hicc1=102
xfout_locc1=77

<region>
hivel=127
key=D2
loop_end=112191
loop_mode=loop_continuous
loop_start=20849
loop_xfade=20849
lovel=1
offset=481
sample=Bass_a2_HardMallets_Center_Buzz_Roll_MF_D4_RR2.opus
</region>

<region>
hivel=127
key=F2
loop_end=115953
loop_mode=loop_continuous
loop_start=21549
loop_xfade=21549
lovel=1
offset=384
sample=Bass_a2_HardMallets_Center_Rim_Buzz_Roll_MF_D4_RR2.opus
</region>

<region>
hivel=127
key=D#2
loop_end=113900
loop_mode=loop_continuous
loop_start=21167
loop_xfade=21167
lovel=1
offset=461
sample=Bass_a2_HardMallets_Edge_Buzz_Roll_MF_D4_RR2.opus
</region>

<region>
hivel=127
key=E2
loop_end=113291
loop_mode=loop_continuous
loop_start=21054
loop_xfade=21054
lovel=1
offset=481
sample=Bass_a2_HardMallets_Halfway_Buzz_Roll_MF_D4_RR2.opus
</region>
</group>

<group>
amp_veltrack=0
ampeg_attack=0.001
ampeg_release=0.05
group_label=Rolls_RR2_78-103
seq_length=2
seq_position=2
xfin_hicc1=103
xfin_locc1=78
xfout_hicc1=127
xfout_locc1=103

<region>
hivel=127
key=D2
loop_end=113538
loop_mode=loop_continuous
loop_start=21100
loop_xfade=21100
lovel=1
offset=373
sample=Bass_a2_HardMallets_Center_Buzz_Roll_F_D4_RR2.opus
</region>

<region>
hivel=127
key=F2
loop_end=113030
loop_mode=loop_continuous
loop_start=21005
loop_xfade=21005
lovel=1
offset=367
sample=Bass_a2_HardMallets_Center_Rim_Buzz_Roll_F_D4_RR2.opus
</region>

<region>
hivel=127
key=D#2
loop_end=112850
loop_mode=loop_continuous
loop_start=20972
loop_xfade=20972
lovel=1
offset=480
sample=Bass_a2_HardMallets_Edge_Buzz_Roll_F_D4_RR2.opus
</region>

<region>
hivel=127
key=E2
loop_end=113655
loop_mode=loop_continuous
loop_start=21122
loop_xfade=21122
lovel=1
offset=481
sample=Bass_a2_HardMallets_Halfway_Buzz_Roll_F_D4_RR2.opus
</region>
</group>

<group>
amp_veltrack=0
ampeg_attack=0.001
ampeg_release=0.05
group_label=Rolls_RR2_104-127
seq_length=2
seq_position=2
xfin_hicc1=127
xfin_locc1=104
xfout_hicc1=127
xfout_locc1=127

<region>
hivel=127
key=D2
loop_end=113141
loop_mode=loop_continuous
loop_start=21026
loop_xfade=21026
lovel=1
offset=445
sample=Bass_a2_HardMallets_Center_Buzz_Roll_FF_D4_RR2.opus
</region>

<region>
hivel=127
key=F2
loop_end=113784
loop_mode=loop_continuous
loop_start=21145
loop_xfade=21145
lovel=1
offset=432
sample=Bass_a2_HardMallets_Center_Rim_Buzz_Roll_FF_D4_RR2.opus
</region>

<region>
hivel=127
key=D#2
loop_end=112249
loop_mode=loop_continuous
loop_start=20860
loop_xfade=20860
lovel=1
offset=480
sample=Bass_a2_HardMallets_Edge_Buzz_Roll_FF_D4_RR2.opus
</region>

<region>
hivel=127
key=E2
loop_end=114107
loop_mode=loop_continuous
loop_start=21206
loop_xfade=21206
lovel=1
offset=481
sample=Bass_a2_HardMallets_Halfway_Buzz_Roll_FF_D4_RR2.opus
</region>
</group>

<group>
amp_veltrack=0
ampeg_attack=0.01
ampeg_release=0.65
group_label=Rolls_Release_RR1_0-25
seq_length=2
seq_position=1
trigger=release
xfin_hicc1=25
xfout_hicc1=50
xfout_locc1=25

<region>
hivel=127
key=D2
lovel=1
offset=128264
sample=Bass_a2_HardMallets_Center_Buzz_Roll_P_D4_RR1.opus
</region>

<region>
hivel=127
key=F2
lovel=1
offset=127359
sample=Bass_a2_HardMallets_Center_Rim_Buzz_Roll_P_D4_RR1.opus
</region>

<region>
hivel=127
key=D#2
lovel=1
offset=134277
sample=Bass_a2_HardMallets_Edge_Buzz_Roll_P_D4_RR1.opus
</region>

<region>
hivel=127
key=E2
lovel=1
offset=130073
sample=Bass_a2_HardMallets_Halfway_Buzz_Roll_P_D4_RR1.opus
</region>
</group>

<group>
amp_veltrack=0
ampeg_attack=0.01
ampeg_release=0.65
group_label=Rolls_Release_RR1_26-51
seq_length=2
seq_position=1
trigger=release
xfin_hicc1=51
xfin_locc1=26
xfout_hicc1=76
xfout_locc1=51

<region>
hivel=127
key=D2
lovel=1
offset=125448
sample=Bass_a2_HardMallets_Center_Buzz_Roll_MP_D4_RR1.opus
</region>

<region>
hivel=127
key=F2
lovel=1
offset=128110
sample=Bass_a2_HardMallets_Center_Rim_Buzz_Roll_MP_D4_RR1.opus
</region>

<region>
hivel=127
key=D#2
lovel=1
offset=131288
sample=Bass_a2_HardMallets_Edge_Buzz_Roll_MP_D4_RR1.opus
</region>

<region>
hivel=127
key=E2
lovel=1
offset=124594
sample=Bass_a2_HardMallets_Halfway_Buzz_Roll_MP_D4_RR1.opus
</region>
</group>

<group>
amp_veltrack=0
ampeg_attack=0.01
ampeg_release=0.65
group_label=Rolls_Release_RR1_52-77
seq_length=2
seq_position=1
trigger=release
xfin_hicc1=77
xfin_locc1=52
xfout_hicc1=102
xfout_locc1=77

<region>
hivel=127
key=D2
lovel=1
offset=124026
sample=Bass_a2_HardMallets_Center_Buzz_Roll_MF_D4_RR1.opus
</region>

<region>
hivel=127
key=F2
lovel=1
offset=128690
sample=Bass_a2_HardMallets_Center_Rim_Buzz_Roll_MF_D4_RR1.opus
</region>

<region>
hivel=127
key=D#2
lovel=1
offset=126485
sample=Bass_a2_HardMallets_Edge_Buzz_Roll_MF_D4_RR1.opus
</region>

<region>
hivel=127
key=E2
lovel=1
offset=128754
sample=Bass_a2_HardMallets_Halfway_Buzz_Roll_MF_D4_RR1.opus
</region>
</group>

<group>
amp_veltrack=0
ampeg_attack=0.01
ampeg_release=0.65
group_label=Rolls_Release_RR1_78-103
seq_length=2
seq_position=1
trigger=release
xfin_hicc1=103
xfin_locc1=78
xfout_hicc1=127
xfout_locc1=103

<region>
hivel=127
key=D2
lovel=1
offset=127568
sample=Bass_a2_HardMallets_Center_Buzz_Roll_F_D4_RR1.opus
</region>

<region>
hivel=127
key=F2
lovel=1
offset=124792
sample=Bass_a2_HardMallets_Center_Rim_Buzz_Roll_F_D4_RR1.opus
</region>

<region>
hivel=127
key=D#2
lovel=1
offset=130470
sample=Bass_a2_HardMallets_Edge_Buzz_Roll_F_D4_RR1.opus
</region>

<region>
hivel=127
key=E2
lovel=1
offset=127811
sample=Bass_a2_HardMallets_Halfway_Buzz_Roll_F_D4_RR1.opus
</region>
</group>

<group>
amp_veltrack=0
ampeg_attack=0.01
ampeg_release=0.65
group_label=Rolls_Release_RR1_104-127
seq_length=2
seq_position=1
trigger=release
xfin_hicc1=127
xfin_locc1=104
xfout_hicc1=127
xfout_locc1=127

<region>
hivel=127
key=D2
lovel=1
offset=127306
sample=Bass_a2_HardMallets_Center_Buzz_Roll_FF_D4_RR1.opus
</region>

<region>
hivel=127
key=F2
lovel=1
offset=123825
sample=Bass_a2_HardMallets_Center_Rim_Buzz_Roll_FF_D4_RR1.opus
</region>

<region>
hivel=127
key=D#2
lovel=1
offset=128257
sample=Bass_a2_HardMallets_Edge_Buzz_Roll_FF_D4_RR1.opus
</region>

<region>
hivel=127
key=E2
lovel=1
offset=129794
sample=Bass_a2_HardMallets_Halfway_Buzz_Roll_FF_D4_RR1.opus
</region>
</group>

<group>
amp_veltrack=0
ampeg_attack=0.01
ampeg_release=0.65
group_label=Rolls_Release_RR2_0-25
seq_length=2
seq_position=2
trigger=release
xfin_hicc1=25
xfout_hicc1=50
xfout_locc1=25

<region>
hivel=127
key=D2
lovel=1
offset=129499
sample=Bass_a2_HardMallets_Center_Buzz_Roll_P_D4_RR2.opus
</region>

<region>
hivel=127
key=F2
lovel=1
offset=128265
sample=Bass_a2_HardMallets_Center_Rim_Buzz_Roll_P_D4_RR2.opus
</region>

<region>
hivel=127
key=D#2
lovel=1
offset=133206
sample=Bass_a2_HardMallets_Edge_Buzz_Roll_P_D4_RR2.opus
</region>

<region>
hivel=127
key=E2
lovel=1
offset=131300
sample=Bass_a2_HardMallets_Halfway_Buzz_Roll_P_D4_RR2.opus
</region>
</group>

<group>
amp_veltrack=0
ampeg_attack=0.01
ampeg_release=0.65
group_label=Rolls_Release_RR2_26-51
seq_length=2
seq_position=2
trigger=release
xfin_hicc1=51
xfin_locc1=26
xfout_hicc1=76
xfout_locc1=51

<region>
hivel=127
key=D2
lovel=1
offset=124968
sample=Bass_a2_HardMallets_Center_Buzz_Roll_MP_D4_RR2.opus
</region>

<region>
hivel=127
key=F2
lovel=1
offset=128971
sample=Bass_a2_HardMallets_Center_Rim_Buzz_Roll_MP_D4_RR2.opus
</region>

<region>
hivel=127
key=D#2
lovel=1
offset=128295
sample=Bass_a2_HardMallets_Edge_Buzz_Roll_MP_D4_RR2.opus
</region>

<region>
hivel=127
key=E2
lovel=1
offset=124275
sample=Bass_a2_HardMallets_Halfway_Buzz_Roll_MP_D4_RR2.opus
</region>
</group>

<group>
amp_veltrack=0
ampeg_attack=0.01
ampeg_release=0.65
group_label=Rolls_Release_RR2_52-77
seq_length=2
seq_position=2
trigger=release
xfin_hicc1=77
xfin_locc1=52
xfout_hicc1=102
xfout_locc1=77

<region>
hivel=127
key=D2
lovel=1
offset=123198
sample=Bass_a2_HardMallets_Center_Buzz_Roll_MF_D4_RR2.opus
</region>

<region>
hivel=127
key=F2
lovel=1
offset=128164
sample=Bass_a2_HardMallets_Center_Rim_Buzz_Roll_MF_D4_RR2.opus
</region>

<region>
hivel=127
key=D#2
lovel=1
offset=126474
sample=Bass_a2_HardMallets_Edge_Buzz_Roll_MF_D4_RR2.opus
</region>

<region>
hivel=127
key=E2
lovel=1
offset=128184
sample=Bass_a2_HardMallets_Halfway_Buzz_Roll_MF_D4_RR2.opus
</region>
</group>

<group>
amp_veltrack=0
ampeg_attack=0.01
ampeg_release=0.65
group_label=Rolls_Release_RR2_78-103
seq_length=2
seq_position=2
trigger=release
xfin_hicc1=103
xfin_locc1=78
xfout_hicc1=127
xfout_locc1=103

<region>
hivel=127
key=D2
lovel=1
offset=128637
sample=Bass_a2_HardMallets_Center_Buzz_Roll_F_D4_RR2.opus
</region>

<region>
hivel=127
key=F2
lovel=1
offset=123840
sample=Bass_a2_HardMallets_Center_Rim_Buzz_Roll_F_D4_RR2.opus
</region>

<region>
hivel=127
key=D#2
lovel=1
offset=123574
sample=Bass_a2_HardMallets_Edge_Buzz_Roll_F_D4_RR2.opus
</region>

<region>
hivel=127
key=E2
lovel=1
offset=129881
sample=Bass_a2_HardMallets_Halfway_Buzz_Roll_F_D4_RR2.opus
</region>
</group>

<group>
amp_veltrack=0
ampeg_attack=0.01
ampeg_release=0.65
group_label=Rolls_Release_RR2_104-127
seq_length=2
seq_position=2
trigger=release
xfin_hicc1=127
xfin_locc1=104
xfout_hicc1=127
xfout_locc1=127

<region>
hivel=127
key=D2
lovel=1
offset=128399
sample=Bass_a2_HardMallets_Center_Buzz_Roll_FF_D4_RR2.opus
</region>

<region>
hivel=127
key=F2
lovel=1
offset=124307
sample=Bass_a2_HardMallets_Center_Rim_Buzz_Roll_FF_D4_RR2.opus
</region>

<region>
hivel=127
key=D#2
lovel=1
offset=126725
sample=Bass_a2_HardMallets_Edge_Buzz_Roll_FF_D4_RR2.opus
</region>

<region>
hivel=127
key=E2
lovel=1
offset=128599
sample=Bass_a2_HardMallets_Halfway_Buzz_Roll_FF_D4_RR2.opus
</region>
</group>